Coordinates
version=1
nRows=18
nColumns=33
inDegrees=yes

Units are S.I. units (second, meters, Newtons, ...)
Angles are in degrees.

endheader
time	ground_thorax_rot_x	ground_thorax_rot_y	ground_thorax_rot_z	ground_thorax_tx	ground_thorax_ty	ground_thorax_tz	clav_prot_r	clav_elev_r	scapula_abduction_r	scapula_elevation_r	scapula_upward_rot_r	scapula_winging_r	shoulder_elv_r	plane_of_elev_r	axial_rot_r	elbow_flexion_r	pro_sup_r	wrist_flex_r	wrist_dev_r	clav_prot_l	clav_elev_l	scapula_abduction_l	scapula_elevation_l	scapula_upward_rot_l	scapula_winging_l	shoulder_elv_l	plane_of_elev_l	axial_rot_l	elbow_flexion_l	pro_sup_l	wrist_flex_l	wrist_dev_l	
1.3100	2.983878	-7.977138	7.260277	-0.107119	1.034085	0.006611	5.139399	-8.830243	9.079651	-1.984358	0.225782	-1.061949	36.121677	14.865162	14.528086	52.037031	40.408945	5.453169	18.766223	4.881114	-13.957228	-4.582692	1.262246	-15.236159	-4.030113	48.288442	9.896718	-2.708446	60.978528	31.250076	14.973476	-5.098115	
1.3200	3.022499	-7.888577	7.273617	-0.106959	1.034304	0.006526	5.318529	-8.852942	9.447466	-2.050847	0.339147	-1.188534	36.360559	15.300661	14.183834	51.966772	40.343567	5.427319	18.832398	4.949042	-13.903261	-4.739105	1.276388	-15.086240	-3.946021	48.123799	10.410286	-2.880637	61.144284	30.039615	14.853546	-4.829831	
1.3300	3.061773	-7.811523	7.284740	-0.106828	1.034534	0.006445	5.519473	-8.870695	9.851494	-2.111658	0.450566	-1.330140	36.634951	15.766408	13.798191	51.945773	40.321306	5.395672	18.858638	5.008095	-13.850259	-4.883160	1.296634	-14.926114	-3.866087	47.972714	10.953868	-3.056879	61.338921	28.811177	14.605542	-4.525580	
1.3400	3.099069	-7.745254	7.297246	-0.106722	1.034774	0.006365	5.740444	-8.882541	10.287804	-2.165181	0.558385	-1.485801	36.943433	16.260299	13.371089	51.977503	40.336946	5.359241	18.847317	5.057772	-13.796090	-5.013596	1.320060	-14.757552	-3.789945	47.834052	11.526628	-3.232989	61.564858	27.574236	14.235723	-4.192754	
1.3500	3.131607	-7.690497	7.319139	-0.106642	1.035018	0.006281	5.987497	-8.886655	10.758829	-2.202721	0.646254	-1.655857	37.293840	16.784244	12.887578	52.065949	40.374424	5.318605	18.807261	5.099756	-13.729696	-5.132656	1.334541	-14.583208	-3.712487	47.704598	12.134496	-3.407300	61.819140	26.322209	13.738851	-3.841677	
1.3600	3.159535	-7.645318	7.347660	-0.106574	1.035269	0.006193	6.248258	-8.884249	11.249821	-2.231165	0.727629	-1.835606	37.677783	17.332083	12.363098	52.211867	40.428848	5.275969	18.740668	5.132923	-13.655780	-5.238482	1.344628	-14.403137	-3.636410	47.586352	12.774539	-3.569083	62.107001	25.101260	13.148767	-3.492706	
1.3700	3.192553	-7.605432	7.377465	-0.106496	1.035560	0.006106	6.489934	-8.891597	11.719030	-2.277859	0.830676	-2.006423	38.084598	17.882991	11.835471	52.414318	40.501698	5.233798	18.641044	5.153373	-13.602864	-5.321935	1.373703	-14.226975	-3.576929	47.498720	13.428581	-3.698735	62.447767	24.097509	12.507954	-3.206440	
1.3800	3.232873	-7.567531	7.405875	-0.106403	1.035891	0.006024	6.691489	-8.909360	12.144496	-2.355863	0.984521	-2.161924	38.490327	18.428490	11.331027	52.660934	40.575817	5.196087	18.521616	5.162640	-13.574771	-5.387639	1.428777	-14.047429	-3.533724	47.439203	14.093651	-3.781415	62.838167	23.333058	11.908737	-3.005065	
1.3900	3.274944	-7.536500	7.439881	-0.106316	1.036229	0.005936	6.888914	-8.919855	12.574419	-2.437726	1.163108	-2.324771	38.909306	18.978049	10.801840	52.955747	40.662145	5.152941	18.370107	5.164542	-13.540350	-5.442783	1.480954	-13.861547	-3.491544	47.389746	14.797949	-3.825928	63.253920	22.727161	11.307426	-2.861633	
1.4000	3.319938	-7.513901	7.488119	-0.106236	1.036562	0.005840	7.083261	-8.913710	13.012109	-2.516320	1.370613	-2.499132	39.329515	19.531304	10.251177	53.291327	40.744608	5.109480	18.205344	5.160895	-13.491154	-5.492873	1.525660	-13.661146	-3.444515	47.335808	15.536229	-3.832071	63.685882	22.166724	10.756822	-2.752040	
1.4100	3.369131	-7.502084	7.550183	-0.106170	1.036894	0.005737	7.286391	-8.889833	13.473737	-2.586793	1.598049	-2.691057	39.762309	20.089129	9.667137	53.668234	40.833037	5.062181	18.021530	5.150924	-13.429937	-5.536057	1.564596	-13.448351	-3.394386	47.281020	16.306729	-3.804404	64.127356	21.639000	10.226770	-2.664406	
1.4200	3.430188	-7.498751	7.631630	-0.106108	1.037254	0.005633	7.475064	-8.859690	13.927583	-2.665914	1.860058	-2.885438	40.196608	20.637118	9.083926	54.079475	40.921551	5.016083	17.828769	5.131808	-13.381698	-5.565961	1.618762	-13.230142	-3.353727	47.237248	17.079137	-3.740106	64.590821	21.187333	9.747463	-2.609367	
1.4300	3.491703	-7.513214	7.731133	-0.106093	1.037599	0.005510	7.727953	-8.793946	14.479550	-2.702948	2.100502	-3.130173	40.680022	21.199929	8.409535	54.540689	41.049483	4.947447	17.594878	5.106019	-13.308090	-5.585973	1.650565	-13.007583	-3.305949	47.193800	17.898593	-3.663460	65.042414	20.699166	9.176425	-2.533079	
1.4400	3.562201	-7.541222	7.840475	-0.106095	1.037961	0.005386	8.003876	-8.709203	15.073734	-2.725162	2.347501	-3.399637	41.197377	21.766705	7.697220	55.047863	41.197127	4.867401	17.342144	5.070126	-13.242072	-5.590434	1.691406	-12.781826	-3.266341	47.170016	18.728744	-3.562820	65.508385	20.232663	8.571184	-2.460422	
1.4500	3.641168	-7.583358	7.958519	-0.106135	1.038328	0.005255	8.335214	-8.590845	15.752459	-2.709064	2.576296	-3.715116	41.772986	22.347551	6.908331	55.607361	41.373656	4.760134	17.066238	5.027296	-13.177259	-5.583642	1.733437	-12.556329	-3.231078	47.167415	19.581184	-3.441953	65.975224	19.763702	7.888591	-2.387568	
1.4600	3.731807	-7.627399	8.074319	-0.106173	1.038731	0.005132	8.657609	-8.465042	16.425967	-2.694310	2.824725	-4.033682	42.375557	22.930547	6.105649	56.207357	41.540095	4.640370	16.796847	4.979914	-13.137639	-5.571822	1.801988	-12.326020	-3.207529	47.194905	20.430390	-3.286526	66.463593	19.341163	7.206531	-2.337897	
1.4700	3.825694	-7.667853	8.188200	-0.106228	1.039146	0.005004	8.988675	-8.322357	17.117204	-2.665923	3.078364	-4.366229	43.010747	23.517769	5.253454	56.850506	41.696876	4.495947	16.524057	4.937140	-13.098083	-5.570956	1.873136	-12.089385	-3.179731	47.237895	21.307282	-3.102788	66.951139	18.929719	6.494647	-2.297911	
1.4800	3.923112	-7.685133	8.286432	-0.106251	1.039604	0.004882	9.244411	-8.194572	17.713310	-2.676981	3.395120	-4.659352	43.632951	24.083572	4.431309	57.523696	41.795110	4.342515	16.278030	4.906987	-13.081343	-5.597875	1.972274	-11.838177	-3.150479	47.305699	22.189317	-2.876377	67.458420	18.601394	5.855080	-2.293466	
